<?xml version="1.0" encoding="iso-8859-1"?>
<!-- Generator: Adobe Illustrator 19.1.0, SVG Export Plug-In . SVG Version: 6.00 Build 0)  -->
<svg version="1.1" id="Capa_1" xmlns="http://www.w3.org/2000/svg" xmlns:xlink="http://www.w3.org/1999/xlink" x="0px" y="0px"
	 viewBox="0 0 63.215 63.215" style="enable-background:new 0 0 63.215 63.215;" xml:space="preserve">
<g>
	<g>
		<path d="M31.726,14.915c-0.602-0.089-1.237,0.09-1.703,0.552L0.592,44.677c-0.785,0.776-0.789,2.044-0.011,2.827
			c0.364,0.367,0.834,0.563,1.312,0.589c0.545,0.028,1.098-0.164,1.515-0.579l28.3-28.085L59.796,47.73
			c0.364,0.367,0.835,0.563,1.312,0.589c0.544,0.029,1.098-0.164,1.516-0.578c0.784-0.777,0.789-2.045,0.011-2.827L33.425,15.48
			C32.962,15.014,32.329,14.829,31.726,14.915z"/>
	</g>
</g>
<g>
</g>
<g>
</g>
<g>
</g>
<g>
</g>
<g>
</g>
<g>
</g>
<g>
</g>
<g>
</g>
<g>
</g>
<g>
</g>
<g>
</g>
<g>
</g>
<g>
</g>
<g>
</g>
<g>
</g>
</svg>
